<svg viewBox="0 0 40 40" fill="none" xmlns="http://www.w3.org/2000/svg">
<g clip-path="url(#clip0_2770_3135)">
<path d="M34.0368 31.7947L26.8499 17.0057C26.5855 16.4598 25.846 16.4132 25.5187 16.9217C25.5014 16.9487 25.4856 16.9767 25.4716 17.0057L22.6097 22.8949C20.2178 22.7928 17.9158 21.9286 16.0221 20.4217C18.2236 18.1052 19.5372 15.048 19.7208 11.8136H23.0807C23.6734 11.8136 24.0439 11.1534 23.7475 10.6252C23.61 10.3801 23.3557 10.2291 23.0807 10.2291H15.6371V7.85229C15.6371 7.2424 14.9954 6.86122 14.4821 7.16617C14.2438 7.30769 14.0971 7.56924 14.0971 7.85229V10.2291H6.65349C6.06073 10.2291 5.69025 10.8894 5.98664 11.4175C6.1242 11.6626 6.37841 11.8136 6.65349 11.8136H18.1769C17.9941 14.6605 16.8189 17.3439 14.8671 19.3706C13.6699 18.1293 12.7544 16.6309 12.1861 14.9827C12.002 14.403 11.277 14.2457 10.8811 14.6996C10.6884 14.9205 10.6319 15.2336 10.7346 15.5109C11.368 17.3516 12.3842 19.0279 13.712 20.423C11.6929 22.0349 9.20915 22.9084 6.65349 22.9055C6.06073 22.9055 5.69025 23.5657 5.98664 24.0939C6.1242 24.339 6.3784 24.49 6.65349 24.49C9.64344 24.4928 12.5434 23.4378 14.8671 21.5018C16.8699 23.1633 19.3039 24.1814 21.8653 24.4293L18.286 31.7947C18.0212 32.3406 18.4301 32.9766 19.0219 32.9397C19.2966 32.9225 19.5415 32.7558 19.6643 32.5025L21.5034 28.7154H30.8181L32.6585 32.5025C32.7889 32.7712 33.0557 32.941 33.3477 32.9409C33.4672 32.9412 33.5851 32.9122 33.6916 32.8564C34.0716 32.661 34.226 32.186 34.0368 31.7947ZM22.2734 27.1309L26.1608 19.1316L30.0481 27.1309H22.2734Z" fill="white"/>
</g>
<defs>
<clipPath id="clip0_2770_3135">
<rect width="28.2353" height="28.2353" fill="white" transform="translate(5.88232 5.88232)"/>
</clipPath>
</defs>
</svg>
