<svg viewBox="0 0 24 24" fill="none" xmlns="http://www.w3.org/2000/svg">
<g id="icon-edit" clip-path="url(#clip0_2131_370)">
<path id="Vector" d="M19.55 15.75H23.25V11.25" stroke="#9C9C9C" stroke-miterlimit="10" stroke-linecap="round" stroke-linejoin="round"/>
<path id="Vector_2" d="M23.05 15.75C22.35 13.15 20.05 11.25 17.25 11.25C13.95 11.25 11.25 13.95 11.25 17.25C11.25 20.55 13.95 23.25 17.25 23.25C19.15 23.25 20.85 22.35 21.95 20.95" stroke="#9C9C9C" stroke-miterlimit="10" stroke-linecap="round" stroke-linejoin="round"/>
<path id="Vector_3" d="M7.6347 21.449L0.75 23.25L2.54601 16.3463M7.6347 21.449L2.54601 16.3463M7.6347 21.449L8.53271 20.5485M2.54601 16.3463L17.0139 1.83841C18.4108 0.437655 20.7057 0.3376 22.2023 1.83841C23.5992 3.23917 23.5992 5.54037 22.2023 7.04119L20.5061 8.74212M16.6147 2.2386L21.8104 7.43423M17.5127 8.34201L14.0205 4.84011" stroke="#9C9C9C" stroke-miterlimit="10" stroke-linecap="round" stroke-linejoin="round"/>
</g>
<defs>
<clipPath id="clip0_2131_370">
<rect width="24" height="24" fill="white"/>
</clipPath>
</defs>
</svg>
