<svg viewBox="0 0 24 24" fill="none" xmlns="http://www.w3.org/2000/svg">
<circle cx="12" cy="12" r="12" fill="#9C9C9C"/>
<g clip-path="url(#clip0_2401_788)">
<path fill-rule="evenodd" clip-rule="evenodd" d="M17.5941 7.09342C17.7872 6.90033 17.7872 6.58725 17.5941 6.39416C17.401 6.20106 17.0879 6.20106 16.8948 6.39416L12 11.289L7.10515 6.39416C6.91206 6.20106 6.59899 6.20106 6.40589 6.39416C6.21279 6.58725 6.21279 6.90033 6.40589 7.09342L11.3007 11.9883L6.40589 16.8831C6.21279 17.0762 6.21279 17.3893 6.40589 17.5824C6.59899 17.7755 6.91206 17.7755 7.10515 17.5824L12 12.6875L16.8948 17.5824C17.0879 17.7755 17.401 17.7755 17.5941 17.5824C17.7872 17.3893 17.7872 17.0762 17.5941 16.8831L12.6993 11.9883L17.5941 7.09342Z" fill="white"/>
</g>
<defs>
<clipPath id="clip0_2401_788">
<rect width="15.8225" height="15.8225" fill="white" transform="translate(12 0.800049) rotate(45)"/>
</clipPath>
</defs>
</svg>
