<svg viewBox="0 0 178 107" fill="none" xmlns="http://www.w3.org/2000/svg">
<path d="M166.038 106.29C165.534 106.29 165.138 106.182 164.85 105.966C164.58 105.768 164.445 105.516 164.445 105.21C164.445 105.102 164.463 104.976 164.499 104.832C164.535 104.688 164.589 104.553 164.661 104.427H165.228C166.038 104.427 166.713 104.328 167.253 104.13C167.793 103.95 168.261 103.644 168.657 103.212C169.053 102.78 169.422 102.186 169.764 101.43C170.124 100.692 170.511 99.765 170.925 98.649L170.817 99.918L166.092 88.173L166.578 88.524L164.553 88.038C164.553 87.768 164.589 87.57 164.661 87.444C164.733 87.3 164.859 87.165 165.039 87.039H169.953C169.953 87.615 169.809 87.948 169.521 88.038L167.901 88.497L168.279 88.038L172.032 97.461H171.411L174.975 88.173L175.137 88.524L173.247 88.038C173.247 87.714 173.274 87.489 173.328 87.363C173.4 87.219 173.535 87.111 173.733 87.039H177.81C177.81 87.345 177.774 87.579 177.702 87.741C177.63 87.885 177.522 87.975 177.378 88.011L175.839 88.497L176.325 88.011L172.005 99.243C171.177 101.385 170.241 103.095 169.197 104.373C168.153 105.651 167.1 106.29 166.038 106.29Z" fill="white"/>
<path d="M154.851 99C154.851 98.46 154.995 98.136 155.283 98.028L156.822 97.515L156.525 97.974V87.957L156.849 88.362L155.256 88.065C155.13 88.029 155.031 87.939 154.959 87.795C154.887 87.633 154.851 87.408 154.851 87.12C155.553 87.012 156.075 86.94 156.417 86.904C156.759 86.85 157.047 86.823 157.281 86.823C157.713 86.823 158.037 86.949 158.253 87.201C158.469 87.435 158.577 87.831 158.577 88.389V89.523L158.415 89.361H158.685C159.171 88.515 159.765 87.831 160.467 87.309C161.187 86.787 161.871 86.526 162.519 86.526C163.203 86.526 163.689 86.679 163.977 86.985C164.265 87.273 164.409 87.642 164.409 88.092C164.409 88.434 164.301 88.731 164.085 88.983C163.887 89.235 163.626 89.361 163.302 89.361C163.05 88.893 162.789 88.578 162.519 88.416C162.249 88.254 161.952 88.173 161.628 88.173C161.124 88.173 160.593 88.398 160.035 88.848C159.477 89.298 158.973 89.838 158.523 90.468L158.712 89.955V97.947L158.334 97.461L160.683 97.974C160.683 98.244 160.647 98.451 160.575 98.595C160.521 98.739 160.395 98.874 160.197 99H154.851Z" fill="white"/>
<path d="M144.447 99.324C143.601 99.324 142.899 99.081 142.341 98.595C141.783 98.091 141.504 97.425 141.504 96.597C141.504 95.571 141.828 94.734 142.476 94.086C143.142 93.438 144.132 92.961 145.446 92.655L148.983 91.845L148.632 92.142V90.117C148.632 89.163 148.47 88.47 148.146 88.038C147.822 87.588 147.318 87.363 146.634 87.363C145.806 87.363 145.167 87.615 144.717 88.119C144.267 88.605 144.042 89.316 144.042 90.252C143.952 90.342 143.826 90.414 143.664 90.468C143.502 90.522 143.34 90.549 143.178 90.549C142.872 90.549 142.629 90.459 142.449 90.279C142.269 90.099 142.179 89.856 142.179 89.55C142.179 88.956 142.386 88.434 142.8 87.984C143.214 87.534 143.781 87.183 144.501 86.931C145.239 86.661 146.058 86.526 146.958 86.526C148.29 86.526 149.262 86.859 149.874 87.525C150.504 88.191 150.819 89.253 150.819 90.711V97.056C150.819 97.362 150.882 97.596 151.008 97.758C151.134 97.92 151.314 98.001 151.548 98.001C151.746 98.001 151.962 97.947 152.196 97.839C152.448 97.731 152.655 97.614 152.817 97.488L153.006 98.217C152.718 98.559 152.349 98.829 151.899 99.027C151.449 99.225 151.017 99.324 150.603 99.324C150.027 99.324 149.577 99.144 149.253 98.784C148.929 98.406 148.767 97.875 148.767 97.191H148.659C148.155 97.875 147.534 98.406 146.796 98.784C146.058 99.144 145.275 99.324 144.447 99.324ZM145.473 98.055C146.121 98.055 146.742 97.893 147.336 97.569C147.93 97.245 148.425 96.795 148.821 96.219L148.659 96.678V92.628L149.01 92.682L145.932 93.411C145.158 93.591 144.564 93.906 144.15 94.356C143.754 94.788 143.556 95.337 143.556 96.003C143.556 96.633 143.727 97.137 144.069 97.515C144.411 97.875 144.879 98.055 145.473 98.055Z" fill="white"/>
<path d="M131.12 99C131.12 98.46 131.264 98.136 131.552 98.028L133.091 97.515L132.794 97.974V87.957L133.118 88.362L131.525 88.065C131.399 88.029 131.3 87.939 131.228 87.795C131.156 87.633 131.12 87.408 131.12 87.12C131.822 87.012 132.344 86.94 132.686 86.904C133.028 86.85 133.316 86.823 133.55 86.823C133.982 86.823 134.306 86.949 134.522 87.201C134.738 87.435 134.846 87.831 134.846 88.389V89.523L134.684 89.361H134.954C135.44 88.515 136.034 87.831 136.736 87.309C137.456 86.787 138.14 86.526 138.788 86.526C139.472 86.526 139.958 86.679 140.246 86.985C140.534 87.273 140.678 87.642 140.678 88.092C140.678 88.434 140.57 88.731 140.354 88.983C140.156 89.235 139.895 89.361 139.571 89.361C139.319 88.893 139.058 88.578 138.788 88.416C138.518 88.254 138.221 88.173 137.897 88.173C137.393 88.173 136.862 88.398 136.304 88.848C135.746 89.298 135.242 89.838 134.792 90.468L134.981 89.955V97.947L134.603 97.461L136.952 97.974C136.952 98.244 136.916 98.451 136.844 98.595C136.79 98.739 136.664 98.874 136.466 99H131.12Z" fill="white"/>
<path d="M121.775 99.324C121.091 99.324 120.371 99.234 119.615 99.054C118.877 98.892 118.193 98.64 117.563 98.298V80.316L117.86 80.721L116.294 80.424C116.006 80.37 115.862 80.055 115.862 79.479C116.582 79.371 117.113 79.299 117.455 79.263C117.797 79.209 118.085 79.182 118.319 79.182C118.769 79.182 119.093 79.281 119.291 79.479C119.507 79.677 119.615 79.992 119.615 80.424V89.361L119.507 89.199H119.75C120.326 88.353 121.019 87.696 121.829 87.228C122.657 86.76 123.503 86.526 124.367 86.526C125.267 86.526 126.041 86.76 126.689 87.228C127.355 87.696 127.868 88.362 128.228 89.226C128.606 90.072 128.795 91.08 128.795 92.25C128.795 93.672 128.516 94.914 127.958 95.976C127.418 97.038 126.626 97.866 125.582 98.46C124.538 99.036 123.269 99.324 121.775 99.324ZM122.342 98.271C123.764 98.271 124.799 97.83 125.447 96.948C126.095 96.066 126.419 94.671 126.419 92.763C126.419 91.107 126.176 89.892 125.69 89.118C125.204 88.344 124.439 87.957 123.395 87.957C122.837 87.957 122.324 88.065 121.856 88.281C121.406 88.479 120.983 88.776 120.587 89.172C120.191 89.55 119.804 90.009 119.426 90.549L119.696 89.928V97.812L119.426 97.326C119.948 97.668 120.434 97.911 120.884 98.055C121.352 98.199 121.838 98.271 122.342 98.271Z" fill="white"/>
<path d="M108.418 99C108.418 98.424 108.562 98.1 108.85 98.028L110.47 97.515L110.173 97.893V87.849L110.497 88.254L108.823 87.957C108.553 87.921 108.418 87.606 108.418 87.012C109.03 86.922 109.534 86.859 109.93 86.823C110.344 86.769 110.749 86.742 111.145 86.742C111.973 86.742 112.387 87.255 112.387 88.281V97.839L112.063 97.488L114.223 98.001C114.223 98.271 114.187 98.478 114.115 98.622C114.061 98.748 113.935 98.874 113.737 99H108.418ZM111.172 84.069C110.74 84.069 110.407 83.952 110.173 83.718C109.939 83.466 109.822 83.142 109.822 82.746C109.822 82.35 109.957 82.026 110.227 81.774C110.515 81.522 110.83 81.396 111.172 81.396C111.604 81.396 111.937 81.522 112.171 81.774C112.423 82.008 112.549 82.332 112.549 82.746C112.549 83.124 112.405 83.439 112.117 83.691C111.847 83.943 111.532 84.069 111.172 84.069Z" fill="white"/>
<path d="M93.5841 99C93.5841 98.712 93.6201 98.487 93.6921 98.325C93.7821 98.163 93.8901 98.064 94.0161 98.028L95.8251 97.542L95.4201 97.974V82.746L95.8521 83.205L93.5841 82.692C93.5841 82.44 93.6201 82.242 93.6921 82.098C93.7641 81.954 93.8991 81.819 94.0971 81.693H99.6321C99.6321 81.981 99.5961 82.206 99.5241 82.368C99.4521 82.53 99.3441 82.629 99.2001 82.665L97.2831 83.151L97.6341 82.692V97.704L97.3641 97.407L104.708 97.893L104.357 98.244L104.924 95.004C105.176 95.004 105.392 95.04 105.572 95.112C105.752 95.184 105.905 95.292 106.031 95.436V99H93.5841Z" fill="white"/>
<path d="M79.6662 99.324C78.5502 99.324 77.5692 99.081 76.7232 98.595C75.8952 98.109 75.2562 97.425 74.8062 96.543C74.3562 95.661 74.1312 94.617 74.1312 93.411C74.1312 92.061 74.3922 90.873 74.9142 89.847C75.4542 88.803 76.1922 87.993 77.1282 87.417C78.0642 86.823 79.1262 86.526 80.3142 86.526C81.1242 86.526 81.8622 86.661 82.5282 86.931C83.1942 87.183 83.7162 87.534 84.0942 87.984C84.4902 88.434 84.6882 88.929 84.6882 89.469C84.6882 89.829 84.5802 90.117 84.3642 90.333C84.1662 90.531 83.8872 90.63 83.5272 90.63C83.3652 90.63 83.2122 90.612 83.0682 90.576C82.9242 90.522 82.7802 90.459 82.6362 90.387C82.6362 89.433 82.4112 88.704 81.9612 88.2C81.5292 87.696 80.8902 87.444 80.0442 87.444C78.8922 87.444 78.0102 87.903 77.3982 88.821C76.7862 89.721 76.4802 91.017 76.4802 92.709C76.4802 94.473 76.8132 95.814 77.4792 96.732C78.1632 97.632 79.1712 98.082 80.5032 98.082C81.2232 98.082 81.9162 97.938 82.5822 97.65C83.2662 97.344 83.8872 96.912 84.4452 96.354L84.7962 97.002C84.4182 97.47 83.9502 97.884 83.3922 98.244C82.8522 98.586 82.2582 98.847 81.6102 99.027C80.9802 99.225 80.3322 99.324 79.6662 99.324Z" fill="white"/>
<path d="M66.3097 99C66.3097 98.424 66.4537 98.1 66.7417 98.028L68.3617 97.515L68.0647 97.893V87.849L68.3887 88.254L66.7147 87.957C66.4447 87.921 66.3097 87.606 66.3097 87.012C66.9217 86.922 67.4257 86.859 67.8217 86.823C68.2357 86.769 68.6407 86.742 69.0367 86.742C69.8647 86.742 70.2787 87.255 70.2787 88.281V97.839L69.9547 97.488L72.1147 98.001C72.1147 98.271 72.0787 98.478 72.0067 98.622C71.9527 98.748 71.8267 98.874 71.6287 99H66.3097ZM69.0637 84.069C68.6317 84.069 68.2987 83.952 68.0647 83.718C67.8307 83.466 67.7137 83.142 67.7137 82.746C67.7137 82.35 67.8487 82.026 68.1187 81.774C68.4067 81.522 68.7217 81.396 69.0637 81.396C69.4957 81.396 69.8287 81.522 70.0627 81.774C70.3147 82.008 70.4407 82.332 70.4407 82.746C70.4407 83.124 70.2967 83.439 70.0087 83.691C69.7387 83.943 69.4237 84.069 69.0637 84.069Z" fill="white"/>
<path d="M42.5792 99C42.5792 98.424 42.7232 98.1 43.0112 98.028L44.5502 97.515L44.2532 97.893V87.957L44.5772 88.362L42.9842 88.065C42.7142 88.011 42.5792 87.696 42.5792 87.12C43.2632 87.012 43.7762 86.94 44.1182 86.904C44.4782 86.85 44.7752 86.823 45.0092 86.823C45.4772 86.823 45.8102 86.94 46.0082 87.174C46.2062 87.408 46.3052 87.786 46.3052 88.308V89.307L46.1972 89.226H46.4402C47.1242 88.398 47.9162 87.741 48.8162 87.255C49.7342 86.769 50.6072 86.526 51.4352 86.526C52.4432 86.526 53.1902 86.886 53.6762 87.606C54.1622 88.326 54.4052 89.415 54.4052 90.873V97.947L54.0812 97.569L55.9172 98.001C55.9172 98.271 55.8812 98.478 55.8092 98.622C55.7552 98.748 55.6382 98.874 55.4582 99H50.7332C50.7332 98.424 50.8772 98.1 51.1652 98.028L52.5152 97.623L52.2182 98.001V90.927C52.2182 89.019 51.5432 88.065 50.1932 88.065C49.6892 88.065 49.1852 88.173 48.6812 88.389C48.1772 88.587 47.7092 88.866 47.2772 89.226C46.8632 89.568 46.5122 89.946 46.2242 90.36L46.4402 89.847V97.947L46.1162 97.569L47.9522 98.001C47.9522 98.271 47.9162 98.478 47.8442 98.622C47.7902 98.748 47.6642 98.874 47.4662 99H42.5792ZM58.6982 99C58.6982 98.424 58.8422 98.1 59.1302 98.028L60.4802 97.623L60.1832 98.001V90.927C60.1832 89.019 59.5082 88.065 58.1582 88.065C57.4202 88.065 56.6912 88.29 55.9712 88.74C55.2692 89.172 54.6932 89.703 54.2432 90.333L53.9462 89.226H54.3512C55.0532 88.398 55.8542 87.741 56.7542 87.255C57.6722 86.769 58.5452 86.526 59.3732 86.526C60.3992 86.526 61.1552 86.886 61.6412 87.606C62.1272 88.326 62.3702 89.415 62.3702 90.873V97.839L62.0462 97.488L64.0442 98.001C64.0442 98.271 64.0082 98.478 63.9362 98.622C63.8822 98.748 63.7652 98.874 63.5852 99H58.6982Z" fill="white"/>
<path d="M35.4238 99.324C34.1098 99.324 33.0298 99.045 32.1838 98.487C31.3558 97.911 30.9418 97.227 30.9418 96.435C30.9418 96.021 31.0498 95.715 31.2658 95.517C31.4818 95.319 31.7518 95.22 32.0758 95.22C32.4898 95.22 32.8138 95.355 33.0478 95.625C33.0478 96.579 33.2638 97.299 33.6958 97.785C34.1278 98.271 34.7758 98.514 35.6398 98.514C36.4318 98.514 37.0528 98.316 37.5028 97.92C37.9528 97.524 38.1778 96.966 38.1778 96.246C38.1778 95.688 38.0338 95.238 37.7458 94.896C37.4578 94.554 37.0798 94.275 36.6118 94.059C36.1438 93.843 35.6398 93.636 35.0998 93.438C34.5238 93.222 33.9568 92.97 33.3988 92.682C32.8408 92.394 32.3818 92.025 32.0218 91.575C31.6618 91.107 31.4818 90.531 31.4818 89.847C31.4818 88.857 31.8778 88.056 32.6698 87.444C33.4618 86.832 34.5238 86.526 35.8558 86.526C36.6118 86.526 37.2958 86.625 37.9078 86.823C38.5198 87.021 39.0058 87.3 39.3658 87.66C39.7258 88.002 39.9058 88.398 39.9058 88.848C39.9058 89.19 39.7978 89.46 39.5818 89.658C39.3658 89.838 39.0958 89.928 38.7718 89.928C38.4838 89.928 38.2138 89.829 37.9618 89.631C37.9618 88.893 37.7548 88.326 37.3408 87.93C36.9268 87.534 36.3598 87.336 35.6398 87.336C34.9738 87.336 34.4428 87.498 34.0468 87.822C33.6508 88.146 33.4528 88.587 33.4528 89.145C33.4528 89.613 33.5788 90 33.8308 90.306C34.1008 90.594 34.4518 90.837 34.8838 91.035C35.3158 91.233 35.7748 91.431 36.2608 91.629C36.8908 91.863 37.5118 92.133 38.1238 92.439C38.7538 92.745 39.2758 93.141 39.6898 93.627C40.1038 94.095 40.3108 94.725 40.3108 95.517C40.3108 96.291 40.1038 96.966 39.6898 97.542C39.2758 98.1 38.6998 98.541 37.9618 98.865C37.2238 99.171 36.3778 99.324 35.4238 99.324Z" fill="white"/>
<path d="M22.4205 99.324C20.7465 99.324 19.4235 98.802 18.4515 97.758C17.4795 96.714 16.9935 95.319 16.9935 93.573C16.9935 92.223 17.2725 91.017 17.8305 89.955C18.4065 88.893 19.1895 88.056 20.1795 87.444C21.1695 86.832 22.3035 86.526 23.5815 86.526C24.6975 86.526 25.6605 86.769 26.4705 87.255C27.2805 87.723 27.9105 88.389 28.3605 89.253C28.8105 90.117 29.0355 91.134 29.0355 92.304C29.0355 93.672 28.7565 94.887 28.1985 95.949C27.6405 96.993 26.8575 97.821 25.8495 98.433C24.8595 99.027 23.7165 99.324 22.4205 99.324ZM22.9335 98.406C24.1395 98.406 25.0665 97.92 25.7145 96.948C26.3805 95.976 26.7135 94.617 26.7135 92.871C26.7135 91.125 26.4075 89.784 25.7955 88.848C25.1835 87.912 24.2925 87.444 23.1225 87.444C21.9165 87.444 20.9805 87.93 20.3145 88.902C19.6485 89.856 19.3155 91.224 19.3155 93.006C19.3155 94.752 19.6215 96.093 20.2335 97.029C20.8635 97.947 21.7635 98.406 22.9335 98.406Z" fill="white"/>
<path d="M8.019 99.324C6.435 99.324 5.04 98.973 3.834 98.271C2.628 97.551 1.683 96.57 0.999 95.328C0.333 94.068 0 92.619 0 90.981C0 89.595 0.234 88.317 0.702 87.147C1.17 85.977 1.818 84.96 2.646 84.096C3.474 83.214 4.455 82.53 5.589 82.044C6.723 81.558 7.947 81.315 9.261 81.315C10.179 81.315 11.061 81.432 11.907 81.666C12.753 81.882 13.527 82.206 14.229 82.638L13.716 86.418C13.428 86.418 13.194 86.373 13.014 86.283C12.834 86.193 12.735 86.085 12.717 85.959L12.474 83.286L12.906 83.961C12.456 83.583 11.844 83.286 11.07 83.07C10.296 82.836 9.486 82.719 8.64 82.719C7.38 82.719 6.282 83.025 5.346 83.637C4.41 84.231 3.69 85.086 3.186 86.202C2.682 87.318 2.43 88.641 2.43 90.171C2.43 91.737 2.682 93.105 3.186 94.275C3.708 95.445 4.428 96.354 5.346 97.002C6.264 97.65 7.326 97.974 8.532 97.974C9.468 97.974 10.341 97.785 11.151 97.407C11.979 97.029 12.591 96.534 12.987 95.922L12.501 96.975L12.825 93.276C13.221 93.276 13.509 93.312 13.689 93.384C13.869 93.456 13.986 93.564 14.04 93.708L14.202 97.218C13.482 97.866 12.564 98.379 11.448 98.757C10.332 99.135 9.189 99.324 8.019 99.324Z" fill="white"/>
<path fill-rule="evenodd" clip-rule="evenodd" d="M118.237 35.5C118.237 52.0685 104.306 62 87.7373 62C78.9544 62 70.9125 57.3827 65.294 50.5753C73.4885 49.0645 82.5459 46.9157 91.9734 44.1666C101.531 41.3796 110.436 38.2767 118.235 35.101C118.236 35.234 118.237 35.367 118.237 35.5ZM118.132 32.9823C110.256 36.2191 101.188 39.3964 91.4135 42.2466C81.6436 45.0956 72.2925 47.2901 63.9148 48.7934C59.8504 43.1892 57.3573 36.3705 57.2415 29.4999C65.1655 25.574 74.3538 21.5438 84.5126 18.5815C93.4024 15.9892 102.105 14.4859 110.032 13.515C114.559 19.0337 117.546 25.9619 118.132 32.9823ZM119.639 34.5233C118.353 51.0169 104.561 64 87.7373 64C77.2416 64 67.9261 58.947 62.0908 51.141C42.8318 54.3878 29.0083 53.8699 27.6047 49.0565C26.192 44.2121 37.727 36.2744 55.9143 28.6149C57.6051 12.5331 71.2076 0 87.7373 0C97.8013 0 106.78 4.64579 112.646 11.9097C132.813 8.33306 147.436 8.73374 148.881 13.6916C150.318 18.6183 138.363 26.7442 119.639 34.5233ZM113.569 13.1096C118.47 12.5847 123.018 12.2423 127.062 11.938C127.595 11.8978 128.119 11.8584 128.635 11.8192C134.388 11.3822 139.036 11.478 142.308 12.0698C143.948 12.3664 145.13 12.7685 145.909 13.2114C146.679 13.6491 146.897 14.0292 146.961 14.2515C147.026 14.4738 147.047 14.9111 146.633 15.6941C146.214 16.4864 145.434 17.4608 144.21 18.5924C141.769 20.8502 137.901 23.4295 132.814 26.1533C129.033 28.1782 124.632 30.255 119.736 32.3152C119.737 32.2102 119.737 32.1052 119.737 32C119.737 24.9345 117.447 18.4038 113.569 13.1096ZM109.21 12.5475C103.655 6.23763 96.0263 2 87.7373 2C71.4855 2 57.7708 12.0365 57.2525 28.0568C65.2862 24.7386 74.5445 21.4882 84.5126 18.5815C93.1863 16.0522 101.547 14.0311 109.21 12.5475ZM55.7856 30.2269C51.8731 32.1959 48.286 34.1201 45.0619 35.8495C44.5907 36.1022 44.1272 36.3508 43.6716 36.5948C38.5853 39.3186 34.7171 41.8979 32.2759 44.1557C31.0524 45.2873 30.2718 46.2617 29.8529 47.054C29.4388 47.837 29.4599 48.2743 29.5247 48.4966C29.5895 48.7189 29.8068 49.099 30.5768 49.5367C31.356 49.9796 32.538 50.3817 34.1779 50.6783C37.4501 51.2701 42.0983 51.3659 47.8515 50.9289C51.7543 50.6324 56.1156 50.0949 60.8274 49.3235C57.6065 44.3305 55.7373 38.3836 55.7373 32C55.7373 31.4051 55.7536 30.8139 55.7856 30.2269Z" fill="white"/>
</svg>
