<svg width="134" height="79" viewBox="0 0 134 79" fill="none" xmlns="http://www.w3.org/2000/svg">

<style>
.char {
  --stroke-default: 80;
  --stroke-double: 160;
  --stroke-default-negative: -80;

  stroke-width: 1;
  linecap: round;
  stroke-dasharray: var(--stroke-default);
  stroke-dashoffset: var(--stroke-default);

  animation-name: charAnime;
  animation-duration: .3s;
  animation-timing-function: ease-in-out;
  animation-iteration-count: 1;
  animation-fill-mode: forwards;
}
#char-1 { animation-delay: .4s;}
#char-2 { animation-delay: .6s;}
#char-3 { animation-delay: .8s;}
#char-4 { animation-delay: 1s;}
#char-5 { animation-delay: 1.2s;}
#char-6 { animation-delay: 1.4s;}
#char-7 { animation-delay: 1.7s;}
#char-8 { animation-delay: 2s;}
#char-9 { animation-delay: 2s;}
#char-10 { animation-delay: 2.2s;}
#char-11 { animation-delay: 2.4s;}
#char-12 { animation-delay: 2.6s;}
#char-13 { animation-delay: 2.8s;}
#char-14 { animation-delay: 3s;}
@keyframes charAnime {
  0% {
    stroke-dasharray: var(--stroke-default);
    stroke-dashoffset: var(--stroke-default);
  }
  100% {
    stroke-dasharray: var(--stroke-double);
  }
}

#line1,#line2{
  --stroke-default: 200;
  --stroke-double: 400;
  --stroke-default-negative: -200;

  stroke-width: 1;
  linecap: round;
  stroke-dasharray: var(--stroke-default);
  stroke-dashoffset: var(--stroke-default);
}
#line1{
  animation-name: strokeAnime;
  animation-duration: .8s;
  animation-timing-function: ease-in-out;
  animation-delay: 2.2s;
  animation-iteration-count: 1;
  animation-fill-mode: forwards;
}
#line2{
  --stroke-default: 700;
  animation-name: strokeAnime;
  animation-duration: .8s;
  animation-timing-function: ease-in;
  animation-delay: 2.4s;
  animation-iteration-count: 1;
  animation-fill-mode: forwards;
}
@keyframes strokeAnime {
  0% {
    stroke-dasharray: var(--stroke-default);
    stroke-dashoffset: var(--stroke-default);
  }
  40% {
    stroke-dasharray: var(--stroke-double);
    stroke-dashoffset: 0;
  }
  100% {
    stroke-dasharray: var(--stroke-double);
    stroke-dashoffset: var(--stroke-default-negative);
    opacity: 0;
  }
}
</style>

<path d="M28.461 36.9374C27.5087 36.798 3.43523 48.6373 1.12356 67.6624C-0.709351 82.7469 18.4367 69.7459 19.6615 68.9143" stroke="white" stroke-miterlimit="1.5" stroke-linecap="round" stroke-linejoin="round" class="char" id="char-1"/>
<path d="M24.1336 61.9449C23.5163 62.6902 17.8098 69.6567 21.6891 69.3448C22.5139 69.2782 30.3839 64.3646 24.2965 62.1022" stroke="white" stroke-miterlimit="1.5" stroke-linecap="round" stroke-linejoin="round" class="char" id="char-2"/>
<path d="M33.7662 61.7211C33.0772 60.2553 26.8443 63.2398 29.9809 64.8252C30.414 65.0445 34.8614 68.5782 26.2769 69.6637" stroke="white" stroke-miterlimit="1.5" stroke-linecap="round" stroke-linejoin="round" class="char" id="char-3"/>
<path d="M33.7914 68.7375C33.1708 68.7427 44.0873 57.1165 40.3701 68.4539C42.7081 66.4142 42.6063 66.5365 45.0376 64.6547C45.4771 68.1492 45.9092 69.1777 49.3687 68.0329" stroke="white" stroke-miterlimit="1.5" stroke-linecap="round" stroke-linejoin="round" class="char" id="char-4"/>
<path d="M44.376 72.7512C51.4199 70.7289 54.8926 65.4076 55.5155 64.7237C55.2752 65.0515 49.1518 73.3837 56.5462 69.6946" stroke="white" stroke-miterlimit="1.5" stroke-linecap="round" stroke-linejoin="round" class="char" id="char-5"/>
<path d="M64.0354 63.3683C61.0838 61.4715 51.4565 74.6535 63.0665 69.3026" stroke="white" stroke-miterlimit="1.5" stroke-linecap="round" stroke-linejoin="round" class="char" id="char-6"/>
<path d="M96.4895 35.0837C91.5396 42.1259 84.5983 69.3482 73.7693 73.6625C72.9496 73.9892 70.4886 68.8829 78.6107 67.7271C83.5988 67.0179 83.6175 69.0307 90.3434 67.5422" stroke="white" stroke-miterlimit="1.5" stroke-linecap="round" stroke-linejoin="round" class="char" id="char-7"/>
<path d="M84.9431 72.1337C87.672 70.7297 93.9714 64.5193 94.7041 63.7975C94.4929 64.0416 85.7362 76.3743 96.1772 67.5861" stroke="white" stroke-miterlimit="1.5" stroke-linecap="round" stroke-linejoin="round" class="char" id="char-8"/>
<path d="M105.851 50.8299C102.721 54.694 97.8804 65.8511 97.4255 71.5162" stroke="white" stroke-miterlimit="1.5" stroke-linecap="round" stroke-linejoin="round" class="char" id="char-9"/>
<path d="M100.53 65.4108C101.781 63.5168 104.255 64.1458 104.544 64.4822C106.539 66.7966 99.8572 68.8728 99.2979 69.0462" stroke="white" stroke-miterlimit="1.5" stroke-linecap="round" stroke-linejoin="round" class="char" id="char-10"/>
<path d="M108.121 63.4887C107.155 65.3409 106.191 67.194 105.227 69.0462C107.344 65.2825 107.959 65.1948 110.844 64.7671" stroke="white" stroke-miterlimit="1.5" stroke-linecap="round" stroke-linejoin="round" class="char" id="char-11"/>
<path d="M116.149 65.4597C113.893 61.7821 111.715 66.6769 111.573 67.4789C110.688 72.5325 115.678 65.809 115.898 65.511C115.029 68.2678 114.726 68.289 115.146 69.0885" stroke="white" stroke-miterlimit="1.5" stroke-linecap="round" stroke-linejoin="round" class="char" id="char-12"/>
<path d="M119.818 64.415C118.906 66.2672 117.996 68.1203 117.085 69.9725C119.085 66.2088 119.665 66.1211 122.39 65.6934" stroke="white" stroke-miterlimit="1.5" stroke-linecap="round" stroke-linejoin="round" class="char" id="char-13"/>
<path d="M124.314 66.2637C126.645 67.1195 126.611 66.4059 128.09 64.415C127.618 65.7639 122.904 79.2234 116.193 77.9099C108.981 76.4979 128.139 66.6037 133 69.7761" stroke="white" stroke-miterlimit="1.5" stroke-linecap="round" stroke-linejoin="round" class="char" id="char-14"/>

<!-- Circle -->
<path fill-rule="evenodd" clip-rule="evenodd" d="M86.8542 23.1168C86.8542 32.5057 78.8835 38.1335 69.4039 38.1335C64.3789 38.1335 59.7777 35.5171 56.5632 31.6595C61.2516 30.8034 66.4337 29.5857 71.8275 28.0279C77.2958 26.4486 82.3907 24.6903 86.8526 22.8907C86.8537 22.9661 86.8542 23.0414 86.8542 23.1168ZM86.7937 21.6901C82.288 23.5243 77.0995 25.3247 71.5072 26.9399C65.9175 28.5543 60.5673 29.7979 55.7741 30.6498C53.4487 27.474 52.0223 23.61 51.956 19.7167C56.4897 17.492 61.7467 15.2082 67.5589 13.5296C72.6451 12.0606 77.6242 11.2087 82.1597 10.6586C84.7497 13.7858 86.4585 17.7118 86.7937 21.6901ZM87.6563 22.5633C86.9202 31.9097 79.0296 39.2669 69.4039 39.2669C63.3989 39.2669 58.0691 36.4035 54.7305 31.98C43.7117 33.8199 35.8027 33.5264 34.9996 30.7988C34.1914 28.0536 40.791 23.5556 51.1967 19.2152C52.1641 10.1021 59.9466 3 69.4039 3C75.1619 3 80.2991 5.63263 83.6553 9.74889C95.1935 7.72209 103.56 7.94915 104.387 10.7586C105.209 13.5505 98.3692 18.1551 87.6563 22.5633ZM84.1835 10.4288C86.9871 10.1314 89.5894 9.93737 91.9029 9.76489C92.208 9.74214 92.508 9.71977 92.8029 9.69759C96.0945 9.44993 98.754 9.50423 100.626 9.83959C101.564 10.0077 102.241 10.2355 102.686 10.4865C103.127 10.7346 103.251 10.9499 103.288 11.0759C103.325 11.2019 103.338 11.4497 103.101 11.8934C102.861 12.3423 102.414 12.8945 101.714 13.5357C100.318 14.8152 98.1045 16.2768 95.1943 17.8203C93.031 18.9677 90.5129 20.1446 87.7115 21.312C87.7121 21.2526 87.7124 21.193 87.7124 21.1334C87.7124 17.1296 86.4023 13.4289 84.1835 10.4288ZM81.6892 10.1103C78.5112 6.53468 74.1464 4.13334 69.4039 4.13334C60.1056 4.13334 52.2588 9.82074 51.9623 18.8989C56.5587 17.0186 61.8558 15.1767 67.5589 13.5296C72.5215 12.0963 77.3048 10.951 81.6892 10.1103ZM51.1231 20.1287C48.8845 21.2445 46.8322 22.3348 44.9876 23.3148C44.718 23.4581 44.4528 23.5989 44.1921 23.7372C41.282 25.2807 39.0689 26.7423 37.6722 28.0217C36.9722 28.663 36.5256 29.2151 36.2859 29.6641C36.049 30.1078 36.061 30.3556 36.0981 30.4816C36.1352 30.6076 36.2595 30.8229 36.7001 31.071C37.1459 31.3219 37.8221 31.5498 38.7604 31.7179C40.6325 32.0532 43.292 32.1075 46.5836 31.8599C48.8165 31.6919 51.3118 31.3873 54.0077 30.9501C52.1649 28.1208 51.0954 24.7508 51.0954 21.1334C51.0954 20.7963 51.1047 20.4613 51.1231 20.1287Z" fill="white"/>

<path d="M55.5428 17.4372C40.194 21.2416 29.5642 25.2203 29.9815 27.3099C30.5235 30.0245 49.5046 28.5228 72.3769 23.9558C95.2492 19.3888 113.351 13.4858 112.809 10.7712C112.267 8.05652 93.2863 9.55819 70.414 14.1252C68.4933 14.5087 66.6063 14.9017 64.7612 15.3013" stroke="url(#line1_stroke)" stroke-linecap="round" id="line1" />
<path d="M55.4806 19.8082C40.8666 25.8489 30.9452 31.3615 31.668 33.3659C32.607 35.97 51.1549 31.6674 73.0958 23.7557C95.0368 15.844 112.062 7.31923 111.123 4.71513C110.184 2.11104 91.6363 6.41371 69.6954 14.3254C67.8529 14.9898 66.0452 15.6585 64.2798 16.3276" stroke="url(#line2_stroke)" stroke-linecap="round" id="line2" />
<defs>
<linearGradient id="line1_stroke" x1="29.9815" y1="27.3099" x2="112.809" y2="10.7712" gradientUnits="userSpaceOnUse">
<stop stop-color="#FFFBA6"/>
<stop offset="1" stop-color="#D4FF54"/>
</linearGradient>
<linearGradient id="line2_stroke" x1="31.668" y1="33.3659" x2="111.123" y2="4.71513" gradientUnits="userSpaceOnUse">
<stop stop-color="#BCFFEF"/>
<stop offset="1" stop-color="#96DFEE"/>
</linearGradient>
</defs>
</svg>
