<svg width="500" height="310" viewBox="0 0 500 310" fill="none" xmlns="http://www.w3.org/2000/svg">
<style>
#bg{
	fill: #0B0F2B;
}
<!-- Cosmic Library -->
.char{
  fill: white;

  animation-name: fade;
  animation-duration: .6s;
  animation-timing-function: ease-in-out;
  animation-iteration-count: 1;
  animation-fill-mode: forwards;
}
#char-4, #char-7, #char-13 {
  animation-delay: 0.2s;
}
#char-1, #char-5, #char-9 {
  animation-delay: 0.4s;
}
#char-2, #char-8, #char-11 {
  animation-delay: 0.6s;
}
#char-3, #char-6, #char-10 {
  animation-delay: 0.8s;
}

@keyframes fade {
  0% {
    opacity: 1;
  }
  50% {
    opacity: 0.6;
  }
  100% {
    opacity: 1;
  }
}
<!-- Logo -->
#ring {
  fill: white;
}
#circle {
  fill: white;
}
#line1,#line2{
  --stroke-default: 700;
  --stroke-double: 1400;
  --stroke-default-negative: -700;

  stroke-width: 2;
  linecap: round;
  stroke-dasharray: var(--stroke-default);
  stroke-dashoffset: var(--stroke-default);
}
#line1{
  animation-name: strokeAnime;
  animation-duration: .4s;
  animation-timing-function: ease-in-out;
  animation-delay: .4s;
  animation-iteration-count: 1;
  animation-fill-mode: forwards;
}
#line2{
  --stroke-default: 700;
  animation-name: strokeAnime;
  animation-duration: .8s;
  animation-timing-function: ease-in;
  animation-delay: .4s;
  animation-iteration-count: 1;
  animation-fill-mode: forwards;
}
@keyframes strokeAnime {
  0% {
    stroke-dasharray: var(--stroke-default);
    stroke-dashoffset: var(--stroke-default);
  }
  40% {
    stroke-dasharray: var(--stroke-double);
    stroke-dashoffset: 0;
  }
  100% {
    stroke-dasharray: var(--stroke-double);
    stroke-dashoffset: var(--stroke-default-negative);
    opacity: 0;
  }
}
</style>
<!-- Background -->
<rect width="500" height="310" id="bg" />

<!-- Cosmic Library -->
<path d="M57.1219 268.017C53.3447 268.017 50.0182 267.181 47.1424 265.51C44.2666 263.797 42.0132 261.461 40.3822 258.505C38.7941 255.506 38 252.057 38 248.158C38 244.859 38.558 241.817 39.674 239.032C40.7899 236.247 42.3351 233.826 44.3096 231.77C46.284 229.67 48.6233 228.042 51.3274 226.885C54.0315 225.729 56.9502 225.15 60.0835 225.15C62.2725 225.15 64.3757 225.429 66.3931 225.986C68.4104 226.5 70.2561 227.271 71.93 228.299L70.7067 237.297C70.02 237.297 69.462 237.19 69.0328 236.976C68.6035 236.761 68.3675 236.504 68.3246 236.204L67.7451 229.842L68.7752 231.448C67.7022 230.549 66.2428 229.842 64.3972 229.328C62.5515 228.771 60.62 228.492 58.6027 228.492C55.5981 228.492 52.9799 229.221 50.7479 230.677C48.5159 232.091 46.7991 234.126 45.5972 236.783C44.3954 239.439 43.7945 242.588 43.7945 246.23C43.7945 249.958 44.3954 253.214 45.5972 255.999C46.842 258.784 48.5589 260.947 50.7479 262.49C52.9369 264.032 55.4693 264.803 58.3451 264.803C60.5771 264.803 62.6588 264.353 64.5903 263.454C66.5647 262.554 68.0241 261.376 68.9684 259.919L67.8095 262.425L68.5821 253.621C69.5264 253.621 70.2131 253.706 70.6424 253.878C71.0716 254.049 71.3506 254.306 71.4793 254.649L71.8656 263.004C70.1487 264.546 67.9597 265.767 65.2985 266.667C62.6374 267.567 59.9118 268.017 57.1219 268.017Z" class="char" id="char-1" />
<path d="M91.4634 268.017C87.4716 268.017 84.3168 266.774 81.999 264.289C79.6812 261.804 78.5223 258.484 78.5223 254.328C78.5223 251.114 79.1876 248.244 80.5182 245.716C81.8917 243.188 83.7588 241.196 86.1195 239.739C88.4803 238.282 91.1844 237.554 94.2318 237.554C96.893 237.554 99.1894 238.132 101.121 239.289C103.052 240.403 104.555 241.988 105.628 244.045C106.701 246.102 107.237 248.522 107.237 251.307C107.237 254.563 106.572 257.455 105.241 259.983C103.911 262.468 102.044 264.439 99.64 265.896C97.2793 267.31 94.5538 268.017 91.4634 268.017ZM92.6866 265.832C95.5624 265.832 97.7729 264.675 99.3181 262.361C100.906 260.048 101.7 256.813 101.7 252.657C101.7 248.501 100.971 245.309 99.5113 243.081C98.0519 240.853 95.9273 239.739 93.1373 239.739C90.2615 239.739 88.0296 240.896 86.4415 243.21C84.8533 245.48 84.0593 248.737 84.0593 252.978C84.0593 257.134 84.7889 260.326 86.2483 262.554C87.7506 264.739 89.8967 265.832 92.6866 265.832Z" class="char" id="char-2" />
<path d="M122.47 268.017C119.337 268.017 116.762 267.353 114.744 266.024C112.77 264.653 111.783 263.025 111.783 261.14C111.783 260.155 112.04 259.426 112.555 258.955C113.071 258.484 113.714 258.248 114.487 258.248C115.474 258.248 116.247 258.569 116.805 259.212C116.805 261.483 117.32 263.197 118.35 264.354C119.38 265.51 120.925 266.089 122.986 266.089C124.874 266.089 126.355 265.617 127.428 264.675C128.501 263.732 129.038 262.404 129.038 260.69C129.038 259.362 128.694 258.291 128.007 257.477C127.321 256.663 126.419 255.999 125.303 255.485C124.187 254.97 122.986 254.478 121.698 254.006C120.324 253.492 118.972 252.892 117.642 252.207C116.311 251.521 115.217 250.643 114.358 249.572C113.5 248.458 113.071 247.087 113.071 245.459C113.071 243.102 114.015 241.196 115.903 239.739C117.792 238.282 120.324 237.554 123.501 237.554C125.303 237.554 126.934 237.79 128.394 238.261C129.853 238.732 131.012 239.396 131.87 240.253C132.729 241.067 133.158 242.01 133.158 243.081C133.158 243.895 132.901 244.538 132.386 245.009C131.87 245.437 131.227 245.652 130.454 245.652C129.767 245.652 129.123 245.416 128.523 244.945C128.523 243.188 128.029 241.838 127.042 240.896C126.054 239.953 124.702 239.482 122.986 239.482C121.397 239.482 120.131 239.868 119.187 240.639C118.243 241.41 117.77 242.46 117.77 243.788C117.77 244.902 118.071 245.823 118.672 246.551C119.316 247.237 120.153 247.815 121.183 248.287C122.213 248.758 123.307 249.229 124.466 249.701C125.969 250.258 127.449 250.9 128.909 251.629C130.411 252.357 131.656 253.3 132.643 254.456C133.63 255.57 134.124 257.07 134.124 258.955C134.124 260.797 133.63 262.404 132.643 263.775C131.656 265.103 130.282 266.153 128.523 266.924C126.763 267.653 124.745 268.017 122.47 268.017Z" class="char" id="char-3" />
<path d="M139.533 267.246C139.533 265.875 139.876 265.103 140.563 264.932L144.233 263.711L143.525 264.611V240.96L144.297 241.924L140.499 241.217C139.855 241.089 139.533 240.339 139.533 238.968C141.164 238.711 142.387 238.539 143.203 238.454C144.061 238.325 144.77 238.261 145.328 238.261C146.444 238.261 147.238 238.539 147.71 239.096C148.182 239.653 148.418 240.553 148.418 241.796V244.174L148.16 243.981H148.74C150.371 242.01 152.26 240.446 154.406 239.289C156.595 238.132 158.676 237.554 160.651 237.554C163.054 237.554 164.836 238.411 165.995 240.125C167.154 241.838 167.733 244.431 167.733 247.901V264.739L166.96 263.839L171.338 264.868C171.338 265.51 171.253 266.003 171.081 266.346C170.952 266.646 170.673 266.946 170.244 267.246H158.977C158.977 265.875 159.32 265.103 160.007 264.932L163.226 263.968L162.518 264.868V248.03C162.518 243.488 160.908 241.217 157.689 241.217C156.487 241.217 155.286 241.474 154.084 241.988C152.882 242.46 151.766 243.124 150.736 243.981C149.749 244.795 148.912 245.695 148.225 246.68L148.74 245.459V264.739L147.967 263.839L152.345 264.868C152.345 265.51 152.26 266.003 152.088 266.346C151.959 266.646 151.659 266.946 151.186 267.246H139.533ZM177.97 267.246C177.97 265.875 178.313 265.103 179 264.932L182.219 263.968L181.511 264.868V248.03C181.511 243.488 179.901 241.217 176.682 241.217C174.922 241.217 173.184 241.753 171.467 242.824C169.793 243.852 168.42 245.116 167.347 246.616L166.638 243.981H167.604C169.278 242.01 171.188 240.446 173.334 239.289C175.523 238.132 177.605 237.554 179.579 237.554C182.026 237.554 183.829 238.411 184.988 240.125C186.147 241.838 186.726 244.431 186.726 247.901V264.482L185.953 263.647L190.718 264.868C190.718 265.51 190.632 266.003 190.46 266.346C190.332 266.646 190.053 266.946 189.623 267.246H177.97Z" class="char" id="char-4" />
<path d="M196.12 267.245C196.12 265.874 196.463 265.103 197.15 264.932L201.013 263.711L200.305 264.61V240.703L201.077 241.667L197.086 240.96C196.442 240.874 196.12 240.125 196.12 238.711C197.579 238.496 198.781 238.346 199.725 238.261C200.713 238.132 201.678 238.068 202.623 238.068C204.597 238.068 205.584 239.289 205.584 241.731V264.482L204.812 263.646L209.962 264.868C209.962 265.51 209.877 266.003 209.705 266.346C209.576 266.646 209.276 266.946 208.803 267.245H196.12ZM202.687 231.706C201.657 231.706 200.863 231.427 200.305 230.87C199.747 230.27 199.468 229.499 199.468 228.556C199.468 227.614 199.79 226.843 200.434 226.243C201.12 225.643 201.872 225.343 202.687 225.343C203.717 225.343 204.511 225.643 205.069 226.243C205.67 226.8 205.971 227.571 205.971 228.556C205.971 229.456 205.627 230.206 204.941 230.806C204.297 231.406 203.546 231.706 202.687 231.706Z" class="char" id="char-5" />
<path d="M227.97 268.017C225.308 268.017 222.969 267.438 220.952 266.282C218.977 265.125 217.454 263.497 216.381 261.397C215.308 259.298 214.771 256.813 214.771 253.942C214.771 250.729 215.393 247.901 216.638 245.459C217.926 242.974 219.686 241.046 221.918 239.675C224.15 238.261 226.682 237.554 229.515 237.554C231.446 237.554 233.206 237.875 234.794 238.518C236.382 239.118 237.627 239.953 238.528 241.024C239.473 242.096 239.945 243.274 239.945 244.559C239.945 245.416 239.687 246.102 239.172 246.616C238.7 247.087 238.035 247.323 237.176 247.323C236.79 247.323 236.425 247.28 236.082 247.194C235.739 247.066 235.395 246.916 235.052 246.744C235.052 244.473 234.515 242.738 233.442 241.539C232.412 240.339 230.888 239.739 228.871 239.739C226.124 239.739 224.021 240.832 222.561 243.017C221.102 245.159 220.372 248.244 220.372 252.271C220.372 256.47 221.166 259.662 222.755 261.847C224.386 263.989 226.789 265.06 229.966 265.06C231.682 265.06 233.335 264.718 234.923 264.032C236.554 263.304 238.035 262.276 239.365 260.947L240.202 262.49C239.301 263.604 238.185 264.589 236.855 265.446C235.567 266.26 234.15 266.881 232.605 267.31C231.103 267.781 229.558 268.017 227.97 268.017Z" class="char" id="char-6" />
<path d="M261.158 267.245C261.158 266.56 261.244 266.024 261.415 265.639C261.63 265.253 261.887 265.018 262.188 264.932L266.501 263.775L265.536 264.803V228.556L266.566 229.649L261.158 228.428C261.158 227.828 261.244 227.357 261.415 227.014C261.587 226.671 261.909 226.35 262.381 226.05H275.58C275.58 226.735 275.494 227.271 275.322 227.657C275.15 228.042 274.893 228.278 274.549 228.364L269.978 229.52L270.815 228.428V264.161L270.171 263.454L287.684 264.61L286.847 265.446L288.199 257.734C288.8 257.734 289.315 257.82 289.744 257.991C290.173 258.162 290.538 258.419 290.838 258.762V267.245H261.158Z" class="char" id="char-7" />
<path d="M296.53 267.245C296.53 265.874 296.874 265.103 297.56 264.932L301.423 263.711L300.715 264.61V240.703L301.488 241.667L297.496 240.96C296.852 240.874 296.53 240.125 296.53 238.711C297.99 238.496 299.192 238.346 300.136 238.261C301.123 238.132 302.089 238.068 303.033 238.068C305.007 238.068 305.995 239.289 305.995 241.731V264.482L305.222 263.646L310.373 264.868C310.373 265.51 310.287 266.003 310.115 266.346C309.986 266.646 309.686 266.946 309.214 267.245H296.53ZM303.097 231.706C302.067 231.706 301.273 231.427 300.715 230.87C300.157 230.27 299.878 229.499 299.878 228.556C299.878 227.614 300.2 226.843 300.844 226.243C301.531 225.643 302.282 225.343 303.097 225.343C304.128 225.343 304.922 225.643 305.48 226.243C306.081 226.8 306.381 227.571 306.381 228.556C306.381 229.456 306.038 230.206 305.351 230.806C304.707 231.406 303.956 231.706 303.097 231.706Z" class="char" id="char-8" />
<path d="M328.38 268.017C326.749 268.017 325.032 267.803 323.229 267.374C321.469 266.988 319.838 266.389 318.336 265.575V222.772L319.044 223.736L315.31 223.029C314.623 222.901 314.28 222.151 314.28 220.78C315.997 220.523 317.263 220.352 318.079 220.266C318.894 220.137 319.581 220.073 320.139 220.073C321.212 220.073 321.985 220.309 322.457 220.78C322.972 221.251 323.229 222.001 323.229 223.029V244.302L322.972 243.916H323.551C324.925 241.903 326.577 240.339 328.509 239.225C330.483 238.111 332.5 237.554 334.561 237.554C336.707 237.554 338.553 238.111 340.098 239.225C341.686 240.339 342.909 241.924 343.768 243.981C344.669 245.994 345.12 248.394 345.12 251.179C345.12 254.563 344.454 257.52 343.124 260.048C341.836 262.575 339.948 264.546 337.458 265.96C334.969 267.331 331.943 268.017 328.38 268.017ZM329.732 265.51C333.123 265.51 335.591 264.461 337.136 262.361C338.681 260.262 339.454 256.941 339.454 252.4C339.454 248.458 338.874 245.566 337.716 243.724C336.557 241.881 334.732 240.96 332.243 240.96C330.912 240.96 329.689 241.217 328.573 241.731C327.5 242.203 326.491 242.91 325.547 243.852C324.603 244.752 323.68 245.844 322.779 247.13L323.422 245.652V264.418L322.779 263.261C324.023 264.075 325.182 264.653 326.255 264.996C327.371 265.339 328.53 265.51 329.732 265.51Z" class="char" id="char-9" />
<path d="M350.665 267.246C350.665 265.96 351.008 265.189 351.695 264.932L355.365 263.711L354.657 264.803V240.96L355.429 241.924L351.631 241.217C351.33 241.132 351.094 240.917 350.923 240.575C350.751 240.189 350.665 239.653 350.665 238.968C352.339 238.711 353.584 238.539 354.399 238.454C355.215 238.325 355.902 238.261 356.46 238.261C357.49 238.261 358.262 238.561 358.777 239.161C359.292 239.718 359.55 240.66 359.55 241.988V244.688L359.164 244.302H359.807C360.966 242.288 362.383 240.66 364.057 239.418C365.774 238.175 367.405 237.554 368.95 237.554C370.581 237.554 371.74 237.918 372.427 238.647C373.113 239.332 373.457 240.21 373.457 241.281C373.457 242.096 373.199 242.802 372.684 243.402C372.212 244.002 371.59 244.302 370.817 244.302C370.216 243.188 369.594 242.438 368.95 242.053C368.306 241.667 367.598 241.474 366.825 241.474C365.623 241.474 364.357 242.01 363.027 243.081C361.696 244.152 360.494 245.437 359.421 246.937L359.872 245.716V264.739L358.97 263.582L364.572 264.803C364.572 265.446 364.486 265.939 364.314 266.282C364.186 266.624 363.885 266.946 363.413 267.246H350.665Z" class="char" id="char-10" />
<path d="M382.443 268.017C380.426 268.017 378.752 267.438 377.421 266.282C376.091 265.082 375.426 263.497 375.426 261.526C375.426 259.084 376.198 257.091 377.743 255.549C379.332 254.006 381.692 252.871 384.826 252.143L393.26 250.215L392.423 250.922V246.102C392.423 243.831 392.036 242.181 391.264 241.153C390.491 240.082 389.289 239.546 387.658 239.546C385.684 239.546 384.16 240.146 383.087 241.346C382.014 242.503 381.478 244.195 381.478 246.423C381.263 246.637 380.963 246.808 380.576 246.937C380.19 247.066 379.804 247.13 379.417 247.13C378.688 247.13 378.108 246.916 377.679 246.487C377.25 246.059 377.035 245.48 377.035 244.752C377.035 243.338 377.529 242.096 378.516 241.024C379.503 239.953 380.855 239.118 382.572 238.518C384.332 237.875 386.285 237.554 388.431 237.554C391.607 237.554 393.925 238.347 395.384 239.932C396.887 241.517 397.638 244.045 397.638 247.515V262.618C397.638 263.347 397.788 263.904 398.089 264.289C398.389 264.675 398.818 264.868 399.376 264.868C399.848 264.868 400.363 264.739 400.921 264.482C401.522 264.225 402.016 263.947 402.402 263.647L402.853 265.382C402.166 266.196 401.286 266.839 400.213 267.31C399.14 267.781 398.11 268.017 397.123 268.017C395.749 268.017 394.676 267.588 393.904 266.731C393.131 265.832 392.745 264.568 392.745 262.94H392.487C391.285 264.568 389.805 265.832 388.045 266.731C386.285 267.588 384.418 268.017 382.443 268.017ZM384.89 264.996C386.435 264.996 387.916 264.611 389.332 263.839C390.749 263.068 391.929 261.997 392.873 260.626L392.487 261.719V252.078L393.324 252.207L385.984 253.942C384.139 254.371 382.722 255.12 381.735 256.192C380.791 257.22 380.319 258.527 380.319 260.112C380.319 261.611 380.727 262.811 381.542 263.711C382.358 264.568 383.474 264.996 384.89 264.996Z" class="char" id="char-11" />
<path d="M407.252 267.246C407.252 265.96 407.595 265.189 408.282 264.932L411.952 263.711L411.244 264.803V240.96L412.016 241.924L408.218 241.217C407.917 241.132 407.681 240.917 407.509 240.575C407.338 240.189 407.252 239.653 407.252 238.968C408.926 238.711 410.171 238.539 410.986 238.454C411.802 238.325 412.488 238.261 413.046 238.261C414.077 238.261 414.849 238.561 415.364 239.161C415.879 239.718 416.137 240.66 416.137 241.988V244.688L415.751 244.302H416.394C417.553 242.288 418.97 240.66 420.644 239.418C422.361 238.175 423.992 237.554 425.537 237.554C427.168 237.554 428.327 237.918 429.014 238.647C429.7 239.332 430.044 240.21 430.044 241.281C430.044 242.096 429.786 242.802 429.271 243.402C428.799 244.002 428.177 244.302 427.404 244.302C426.803 243.188 426.181 242.438 425.537 242.053C424.893 241.667 424.185 241.474 423.412 241.474C422.21 241.474 420.944 242.01 419.614 243.081C418.283 244.152 417.081 245.437 416.008 246.937L416.459 245.716V264.739L415.557 263.582L421.159 264.803C421.159 265.446 421.073 265.939 420.901 266.282C420.772 266.624 420.472 266.946 420 267.246H407.252Z" class="char" id="char-12" />
<path d="M433.929 284.598C432.727 284.598 431.783 284.341 431.096 283.827C430.452 283.355 430.13 282.755 430.13 282.027C430.13 281.77 430.173 281.47 430.259 281.127C430.345 280.785 430.474 280.463 430.645 280.163H431.997C433.929 280.163 435.538 279.928 436.826 279.456C438.114 279.028 439.23 278.3 440.174 277.271C441.118 276.243 441.998 274.829 442.814 273.03C443.672 271.273 444.595 269.066 445.582 266.41L445.325 269.431L434.058 241.474L435.217 242.31L430.388 241.153C430.388 240.51 430.474 240.039 430.645 239.739C430.817 239.396 431.117 239.075 431.547 238.775H443.264C443.264 240.146 442.921 240.939 442.234 241.153L438.371 242.245L439.273 241.153L448.222 263.582H446.741L455.24 241.474L455.626 242.31L451.119 241.153C451.119 240.382 451.184 239.846 451.312 239.546C451.484 239.203 451.806 238.946 452.278 238.775H462C462 239.503 461.914 240.06 461.742 240.446C461.571 240.789 461.313 241.003 460.97 241.089L457.3 242.245L458.459 241.089L448.158 267.824C446.183 272.923 443.951 276.993 441.462 280.035C438.972 283.077 436.461 284.598 433.929 284.598Z" class="char" id="char-13"  />

<!-- Logo -->
<path fill-rule="evenodd" clip-rule="evenodd" d="M247.216 185.175C286.724 185.175 319.945 161.536 319.945 122.098C319.945 82.66 286.724 42.3583 247.216 42.3583C207.707 42.3583 174.486 67.1881 174.486 106.626C174.486 146.064 207.707 185.175 247.216 185.175ZM247.216 189.936C289.358 189.936 323.522 155.834 323.522 113.767C323.522 71.6998 289.358 37.5978 247.216 37.5978C205.073 37.5978 170.909 71.6998 170.909 113.767C170.909 155.834 205.073 189.936 247.216 189.936Z" id="ring"/>
<path fill-rule="evenodd" clip-rule="evenodd" d="M387.657 74.9541C388.644 73.0903 388.594 72.0495 388.439 71.5203C388.285 70.9911 387.767 70.0865 385.931 69.0446C384.073 67.9903 381.254 67.0333 377.343 66.3272C369.541 64.9186 358.457 64.6905 344.738 65.7308C317.38 67.8053 279.236 70.268 239.526 81.8268C199.816 93.3856 166.325 111.774 142.138 124.704C130.009 131.187 120.785 137.326 114.964 142.701C112.047 145.394 110.185 147.714 109.186 149.6C108.199 151.463 108.249 152.504 108.404 153.033C108.558 153.562 109.076 154.467 110.913 155.509C112.77 156.563 115.589 157.52 119.5 158.226C127.302 159.635 138.386 159.863 152.105 158.823C179.463 156.748 216.272 149.715 255.982 138.156C295.692 126.598 330.518 112.779 354.705 99.8499C366.834 93.3664 376.058 87.2271 381.879 81.8528C384.796 79.1592 386.658 76.84 387.657 74.9541ZM257.317 142.727C337.175 119.482 397.931 87.0046 393.018 70.1876C388.105 53.3706 319.384 58.5816 239.526 81.8268C159.668 105.072 98.9125 137.549 103.825 154.366C108.738 171.183 177.459 165.972 257.317 142.727Z" id="circle"/>

<!-- Motion -->
<path d="M188.631 104.385C124.915 120.178 80.7893 136.694 82.5213 145.368C84.7714 156.637 163.565 150.403 258.512 131.445C353.459 112.486 428.605 87.9819 426.354 76.713C424.104 65.4441 345.311 71.6778 250.364 90.6363C242.391 92.2283 234.557 93.8594 226.898 95.5185" stroke="url(#line1_stroke)" id="line1" />
<path d="M188.372 114.227C127.706 139.303 86.5212 162.187 89.5217 170.508C93.4197 181.318 170.415 163.457 261.496 130.614C352.576 97.771 423.252 62.3834 419.354 51.5733C415.456 40.7633 338.461 58.6244 247.38 91.4672C239.732 94.2251 232.227 97.001 224.899 99.7787" stroke="url(#line2_stroke)" id="line2" />

<defs>
<linearGradient id="line1_stroke" x1="82.5213" y1="145.368" x2="426.354" y2="76.713" gradientUnits="userSpaceOnUse">
<stop stop-color="#FFFBA6"/>
<stop offset="1" stop-color="#D4FF54"/>
</linearGradient>
<linearGradient id="line2_stroke" x1="89.5217" y1="170.508" x2="419.354" y2="51.5733" gradientUnits="userSpaceOnUse">
<stop stop-color="#BCFFEF"/>
<stop offset="1" stop-color="#96DFEE"/>
</linearGradient>

</defs>
</svg>
